{
  "source": "C:\\Users\\Peter\\Desktop\\stuff\\MIUN\\quantitative_research\\video_compression\\videos\\BVI-HD\\BVI-HD_CDVL_videos\\ORIG\\TreeTrunk_1920x1080_50fps.mp4",
  "output": "C:\\Users\\Peter\\Desktop\\stuff\\MIUN\\quantitative_research\\video_compression\\compressed_videos\\BVI-HD\\vp9\\1\\TreeTrunk_1920x1080_50fps_vp9.webm",
  "codec": "vp9",
  "ok": "Input #0, mov,mp4,m4a,3gp,3g2,mj2, from 'C:\\Users\\Peter\\Desktop\\stuff\\MIUN\\quantitative_research\\video_compression\\videos\\BVI-HD\\BVI-HD_CDVL_videos\\ORIG\\TreeTrunk_1920x1080_50fps.mp4':\n  Metadata:\n    major_brand     : isom\n    minor_version   : 512\n    compatible_brands: isomiso2avc1mp41\n    encoder         : Lavf54.28.101\n  Duration: 00:00:05.00, start: 0.000000, bitrate: 622415 kb/s\n  Stream #0:0[0x1](und): Video: h264 (High 4:4:4 Predictive) (avc1 / 0x31637661), yuv420p(progressive), 1920x1080, 622410 kb/s, 50 fps, 50 tbr, 50 tbn (default)\n    Metadata:\n      handler_name    : VideoHandler\n      vendor_id       : [0][0][0][0]\n[out#0/webm @ 000001280ff4f040] Codec AVOption b:a (set bitrate (in bits/s)) has not been used for any stream. The most likely reason is either wrong type (e.g. a video option with no video streams) or that it is a private option of some decoder which was not actually used for any stream.\nStream mapping:\n  Stream #0:0 -> #0:0 (h264 (native) -> vp9 (libvpx-vp9))\nPress [q] to stop, [?] for help\n[libvpx-vp9 @ 000001280fd50a80] v1.15.2-100-g40561f514\nOutput #0, webm, to 'C:\\Users\\Peter\\Desktop\\stuff\\MIUN\\quantitative_research\\video_compression\\compressed_videos\\BVI-HD\\vp9\\1\\TreeTrunk_1920x1080_50fps_vp9.webm':\n  Metadata:\n    major_brand     : isom\n    minor_version   : 512\n    compatible_brands: isomiso2avc1mp41\n    encoder         : Lavf62.3.100\n  Stream #0:0(und): Video: vp9, yuv420p(tv, progressive), 1920x1080, q=2-31, 1000 kb/s, 50 fps, 1k tbn (default)\n    Metadata:\n      encoder         : Lavc62.11.100 libvpx-vp9\n      handler_name    : VideoHandler\n      vendor_id       : [0][0][0][0]\n    Side data:\n      cpb: bitrate max/min/avg: 0/0/0 buffer size: 1000000 vbv_delay: N/A\nframe=    0 fps=0.0 q=0.0 size=       0KiB time=N/A bitrate=N/A speed=N/A elapsed=0:00:00.50    \nframe=    0 fps=0.0 q=0.0 size=       0KiB time=N/A bitrate=N/A speed=N/A elapsed=0:00:01.05    \nframe=    6 fps=3.6 q=54.0 size=       1KiB time=00:00:00.12 bitrate=  42.3kbits/s speed=0.0717x elapsed=0:00:01.67    \nframe=   11 fps=4.9 q=51.0 size=       1KiB time=00:00:00.22 bitrate=  23.1kbits/s speed=0.0986x elapsed=0:00:02.23    \nframe=   15 fps=5.4 q=48.0 size=       1KiB time=00:00:00.30 bitrate=  16.9kbits/s speed=0.108x elapsed=0:00:02.77    \nframe=   19 fps=5.7 q=48.0 size=       1KiB time=00:00:00.38 bitrate=  13.3kbits/s speed=0.114x elapsed=0:00:03.33    \nframe=   22 fps=5.7 q=48.0 size=       1KiB time=00:00:00.44 bitrate=  11.5kbits/s speed=0.113x elapsed=0:00:03.87    \nframe=   26 fps=5.9 q=47.0 size=       1KiB time=00:00:00.52 bitrate=   9.8kbits/s speed=0.117x elapsed=0:00:04.44    \nframe=   30 fps=6.0 q=47.0 size=       1KiB time=00:00:00.60 bitrate=   8.5kbits/s speed=0.12x elapsed=0:00:05.01    \nframe=   33 fps=5.9 q=47.0 size=       1KiB time=00:00:00.66 bitrate=   7.7kbits/s speed=0.119x elapsed=0:00:05.56    \nframe=   37 fps=6.1 q=44.0 size=       1KiB time=00:00:00.74 bitrate=   6.9kbits/s speed=0.121x elapsed=0:00:06.09    \nframe=   41 fps=6.2 q=44.0 size=       1KiB time=00:00:00.82 bitrate=   6.2kbits/s speed=0.123x elapsed=0:00:06.65    \nframe=   44 fps=6.1 q=45.0 size=       1KiB time=00:00:00.88 bitrate=   5.8kbits/s speed=0.123x elapsed=0:00:07.17    \nframe=   47 fps=6.1 q=44.0 size=       1KiB time=00:00:00.94 bitrate=   5.4kbits/s speed=0.122x elapsed=0:00:07.72    \nframe=   51 fps=6.2 q=44.0 size=       1KiB time=00:00:01.02 bitrate=   5.0kbits/s speed=0.124x elapsed=0:00:08.25    \nframe=   55 fps=6.3 q=44.0 size=       1KiB time=00:00:01.10 bitrate=   4.6kbits/s speed=0.125x elapsed=0:00:08.76    \nframe=   59 fps=6.3 q=43.0 size=       1KiB time=00:00:01.18 bitrate=   4.3kbits/s speed=0.127x elapsed=0:00:09.32    \nframe=   63 fps=6.4 q=43.0 size=       1KiB time=00:00:01.26 bitrate=   4.0kbits/s speed=0.128x elapsed=0:00:09.84    \nframe=   66 fps=6.4 q=44.0 size=       1KiB time=00:00:01.32 bitrate=   3.8kbits/s speed=0.127x elapsed=0:00:10.35    \nframe=   71 fps=6.5 q=43.0 size=       1KiB time=00:00:01.42 bitrate=   3.6kbits/s speed=0.13x elapsed=0:00:10.89    \nframe=   75 fps=6.6 q=43.0 size=       1KiB time=00:00:01.50 bitrate=   3.4kbits/s speed=0.131x elapsed=0:00:11.43    \nframe=   79 fps=6.6 q=44.0 size=       1KiB time=00:00:01.58 bitrate=   3.2kbits/s speed=0.132x elapsed=0:00:11.94    \nframe=   83 fps=6.6 q=43.0 size=       1KiB time=00:00:01.66 bitrate=   3.1kbits/s speed=0.133x elapsed=0:00:12.49    \nframe=   87 fps=6.7 q=43.0 size=       1KiB time=00:00:01.72 bitrate=   2.9kbits/s speed=0.132x elapsed=0:00:13.05    \nframe=   89 fps=6.6 q=35.0 size=       1KiB time=00:00:01.78 bitrate=   2.8kbits/s speed=0.131x elapsed=0:00:13.57    \nframe=   93 fps=6.6 q=42.0 size=       1KiB time=00:00:01.86 bitrate=   2.7kbits/s speed=0.132x elapsed=0:00:14.09    \nframe=   97 fps=6.6 q=43.0 size=       1KiB time=00:00:01.94 bitrate=   2.6kbits/s speed=0.133x elapsed=0:00:14.62    \nframe=  100 fps=6.6 q=35.0 size=       1KiB time=00:00:02.00 bitrate=   2.5kbits/s speed=0.132x elapsed=0:00:15.19    \nframe=  104 fps=6.6 q=42.0 size=       1KiB time=00:00:02.08 bitrate=   2.4kbits/s speed=0.132x elapsed=0:00:15.73    \nframe=  108 fps=6.6 q=42.0 size=       1KiB time=00:00:02.16 bitrate=   2.3kbits/s speed=0.133x elapsed=0:00:16.26    \nframe=  111 fps=6.6 q=35.0 size=       1KiB time=00:00:02.22 bitrate=   2.3kbits/s speed=0.132x elapsed=0:00:16.79    \nframe=  116 fps=6.7 q=43.0 size=       1KiB time=00:00:02.32 bitrate=   2.2kbits/s speed=0.133x elapsed=0:00:17.39    \nframe=  119 fps=6.6 q=44.0 size=       1KiB time=00:00:02.38 bitrate=   2.1kbits/s speed=0.132x elapsed=0:00:17.99    \nframe=  124 fps=6.7 q=43.0 size=       1KiB time=00:00:02.48 bitrate=   2.0kbits/s speed=0.133x elapsed=0:00:18.58    \nframe=  127 fps=6.6 q=44.0 size=       1KiB time=00:00:02.52 bitrate=   2.0kbits/s speed=0.131x elapsed=0:00:19.22    \nframe=  128 fps=6.4 q=44.0 size=       1KiB time=00:00:02.56 bitrate=   2.0kbits/s speed=0.128x elapsed=0:00:19.97    \nframe=  129 fps=6.2 q=35.0 size=       1KiB time=00:00:02.56 bitrate=   2.0kbits/s speed=0.124x elapsed=0:00:20.68    \nframe=  132 fps=6.2 q=42.0 size=     512KiB time=00:00:02.62 bitrate=1600.9kbits/s speed=0.122x elapsed=0:00:21.45    \nframe=  135 fps=6.1 q=42.0 size=     512KiB time=00:00:02.68 bitrate=1565.0kbits/s speed=0.12x elapsed=0:00:22.29    \nframe=  139 fps=6.1 q=43.0 size=     512KiB time=00:00:02.78 bitrate=1508.7kbits/s speed=0.121x elapsed=0:00:22.88    \nframe=  142 fps=6.1 q=42.0 size=     512KiB time=00:00:02.84 bitrate=1476.9kbits/s speed=0.121x elapsed=0:00:23.46    \nframe=  145 fps=6.0 q=43.0 size=     512KiB time=00:00:02.90 bitrate=1446.3kbits/s speed=0.121x elapsed=0:00:23.98    \nframe=  148 fps=6.0 q=43.0 size=     512KiB time=00:00:02.96 bitrate=1417.0kbits/s speed=0.121x elapsed=0:00:24.55    \nframe=  150 fps=5.9 q=43.0 size=     512KiB time=00:00:03.00 bitrate=1398.1kbits/s speed=0.119x elapsed=0:00:25.26    \nframe=  151 fps=5.9 q=36.0 size=     512KiB time=00:00:03.02 bitrate=1388.8kbits/s speed=0.117x elapsed=0:00:25.79    \nframe=  154 fps=5.9 q=42.0 size=     512KiB time=00:00:03.08 bitrate=1361.8kbits/s speed=0.117x elapsed=0:00:26.30    \nframe=  157 fps=5.8 q=42.0 size=     512KiB time=00:00:03.14 bitrate=1335.8kbits/s speed=0.117x elapsed=0:00:26.83    \nframe=  159 fps=5.8 q=43.0 size=     512KiB time=00:00:03.18 bitrate=1319.0kbits/s speed=0.116x elapsed=0:00:27.36    \nframe=  161 fps=5.8 q=43.0 size=     512KiB time=00:00:03.22 bitrate=1302.6kbits/s speed=0.115x elapsed=0:00:27.88    \nframe=  163 fps=5.7 q=43.0 size=     512KiB time=00:00:03.26 bitrate=1286.6kbits/s speed=0.115x elapsed=0:00:28.42    \nframe=  166 fps=5.7 q=42.0 size=     512KiB time=00:00:03.32 bitrate=1263.3kbits/s speed=0.115x elapsed=0:00:28.98    \nframe=  168 fps=5.7 q=42.0 size=     512KiB time=00:00:03.36 bitrate=1248.3kbits/s speed=0.114x elapsed=0:00:29.52    \nframe=  171 fps=5.7 q=43.0 size=     512KiB time=00:00:03.40 bitrate=1233.6kbits/s speed=0.113x elapsed=0:00:30.04    \nframe=  172 fps=5.6 q=43.0 size=     512KiB time=00:00:03.44 bitrate=1219.3kbits/s speed=0.112x elapsed=0:00:30.60    \nframe=  174 fps=5.6 q=43.0 size=     512KiB time=00:00:03.48 bitrate=1205.3kbits/s speed=0.112x elapsed=0:00:31.12    \nframe=  176 fps=5.6 q=43.0 size=     512KiB time=00:00:03.52 bitrate=1191.6kbits/s speed=0.111x elapsed=0:00:31.63    \nframe=  180 fps=5.6 q=43.0 size=     512KiB time=00:00:03.60 bitrate=1165.1kbits/s speed=0.112x elapsed=0:00:32.14    \nframe=  183 fps=5.6 q=44.0 size=     512KiB time=00:00:03.66 bitrate=1146.0kbits/s speed=0.112x elapsed=0:00:32.66    \nframe=  186 fps=5.6 q=44.0 size=     512KiB time=00:00:03.72 bitrate=1127.5kbits/s speed=0.112x elapsed=0:00:33.18    \nframe=  189 fps=5.6 q=44.0 size=     512KiB time=00:00:03.78 bitrate=1109.6kbits/s speed=0.112x elapsed=0:00:33.72    \nframe=  191 fps=5.6 q=44.0 size=     512KiB time=00:00:03.82 bitrate=1098.0kbits/s speed=0.112x elapsed=0:00:34.24    \nframe=  193 fps=5.5 q=44.0 size=     512KiB time=00:00:03.86 bitrate=1086.6kbits/s speed=0.111x elapsed=0:00:34.79    \nframe=  195 fps=5.5 q=36.0 size=     512KiB time=00:00:03.88 bitrate=1081.0kbits/s speed=0.11x elapsed=0:00:35.30    \nframe=  197 fps=5.5 q=44.0 size=     512KiB time=00:00:03.94 bitrate=1064.5kbits/s speed=0.11x elapsed=0:00:35.82    \nframe=  200 fps=5.5 q=44.0 size=     512KiB time=00:00:04.00 bitrate=1048.6kbits/s speed=0.11x elapsed=0:00:36.37    \nframe=  202 fps=5.5 q=45.0 size=     512KiB time=00:00:04.04 bitrate=1038.2kbits/s speed=0.109x elapsed=0:00:36.89    \nframe=  204 fps=5.4 q=46.0 size=     512KiB time=00:00:04.08 bitrate=1028.0kbits/s speed=0.109x elapsed=0:00:37.44    \nframe=  205 fps=5.4 q=46.0 size=     512KiB time=00:00:04.10 bitrate=1023.0kbits/s speed=0.108x elapsed=0:00:37.96    \nframe=  209 fps=5.4 q=46.0 size=     512KiB time=00:00:04.18 bitrate=1003.4kbits/s speed=0.109x elapsed=0:00:38.50    \nframe=  211 fps=5.4 q=46.0 size=     512KiB time=00:00:04.22 bitrate= 993.9kbits/s speed=0.108x elapsed=0:00:39.02    \nframe=  213 fps=5.4 q=46.0 size=     512KiB time=00:00:04.26 bitrate= 984.6kbits/s speed=0.108x elapsed=0:00:39.57    \nframe=  216 fps=5.4 q=47.0 size=     512KiB time=00:00:04.32 bitrate= 970.9kbits/s speed=0.108x elapsed=0:00:40.08    \nframe=  217 fps=5.3 q=39.0 size=     512KiB time=00:00:04.34 bitrate= 966.4kbits/s speed=0.107x elapsed=0:00:40.65    \nframe=  220 fps=5.3 q=46.0 size=     512KiB time=00:00:04.40 bitrate= 953.3kbits/s speed=0.107x elapsed=0:00:41.17    \nframe=  223 fps=5.3 q=47.0 size=     512KiB time=00:00:04.46 bitrate= 940.4kbits/s speed=0.107x elapsed=0:00:41.77    \nframe=  225 fps=5.3 q=47.0 size=     512KiB time=00:00:04.50 bitrate= 932.1kbits/s speed=0.106x elapsed=0:00:42.33    \nframe=  226 fps=5.3 q=47.0 size=     512KiB time=00:00:04.52 bitrate= 927.9kbits/s speed=0.105x elapsed=0:00:42.85    \nframe=  226 fps=5.2 q=47.0 size=     512KiB time=00:00:04.52 bitrate= 927.9kbits/s speed=0.104x elapsed=0:00:43.37    \nframe=  226 fps=5.1 q=47.0 size=     512KiB time=00:00:04.52 bitrate= 927.9kbits/s speed=0.103x elapsed=0:00:43.91    \nframe=  226 fps=5.1 q=47.0 size=     512KiB time=00:00:04.52 bitrate= 927.9kbits/s speed=0.102x elapsed=0:00:44.45    \nframe=  226 fps=5.0 q=47.0 size=     512KiB time=00:00:04.52 bitrate= 927.9kbits/s speed= 0.1x elapsed=0:00:44.98    \nframe=  226 fps=5.0 q=47.0 size=     512KiB time=00:00:04.52 bitrate= 927.9kbits/s speed=0.0993x elapsed=0:00:45.52    \nframe=  226 fps=4.9 q=47.0 size=     512KiB time=00:00:04.52 bitrate= 927.9kbits/s speed=0.098x elapsed=0:00:46.11    \nframe=  226 fps=4.8 q=47.0 size=     512KiB time=00:00:04.52 bitrate= 927.9kbits/s speed=0.0969x elapsed=0:00:46.63    \nframe=  226 fps=4.8 q=47.0 size=     512KiB time=00:00:04.52 bitrate= 927.9kbits/s speed=0.0958x elapsed=0:00:47.16    \nframe=  226 fps=4.7 q=47.0 size=     512KiB time=00:00:04.52 bitrate= 927.9kbits/s speed=0.0947x elapsed=0:00:47.70    \n[out#0/webm @ 000001280ff4f040] video:1126KiB audio:0KiB subtitle:0KiB other streams:0KiB global headers:0KiB muxing overhead: 0.213607%\nframe=  250 fps=5.2 q=49.0 Lsize=    1128KiB time=00:00:05.00 bitrate=1848.1kbits/s speed=0.104x elapsed=0:00:48.18    \n",
  "seconds": 48.63312268257141,
  "probe_out": {}
}